# xmcd
#
# Track frame offsets: 
#        150
#        22120
#        38993
#        67623
#
# Disc length: 1371 seconds
#
# Revision: 1
# Processed by: cddbd v1.5.2PL0 Copyright (c) Steve Scherf et al.
# Submitted via: ExactAudioCopy v1.1
#
DISCID=2a055904
DTITLE=Various Artists For Children's Promise - It's Only Rock 'N' Rol
DTITLE=l [CD 1)
DYEAR=1999
DGENRE=Rock
TTITLE0=It's Only Rock'N' Roll (Single version)
TTITLE1=It's Only Rock'N' Roll (Shaft's Radio Mix)
TTITLE2=It's Only Rock'N' Roll (Arthur Baker And Rennie Pilgrem's Rawk
TTITLE2=in' Roll Mix)
TTITLE3=data track
EXTD=YEAR: 1999
EXTT0=
EXTT1=
EXTT2=
EXTT3=
PLAYORDER=
